<svg width="16" height="16" viewBox="0 0 16 16" fill="none" xmlns="http://www.w3.org/2000/svg">
<g clip-path="url(#clip0_7263_11164)">
<path d="M14.5453 7.27264C13.0908 7.27264 12.3635 5.09082 10.1817 5.09082C7.99988 5.09082 7.99988 6.54537 7.99988 6.54537C7.99988 6.54537 7.99988 5.09082 5.81806 5.09082C3.63624 5.09082 2.90897 7.27264 1.45442 7.27264C0.727151 7.27264 -0.00012207 6.54537 -0.00012207 6.54537C-0.00012207 6.54537 0.727151 10.1817 3.63624 10.1817C7.27261 10.1817 7.99988 7.99991 7.99988 7.99991C7.99988 7.99991 8.72715 10.1817 12.3635 10.1817C15.2726 10.1817 15.9999 6.54537 15.9999 6.54537C15.9999 6.54537 15.2726 7.27264 14.5453 7.27264Z" fill="white"/>
</g>
<defs>
<clipPath id="clip0_7263_11164">
<rect width="16" height="16" fill="white"/>
</clipPath>
</defs>
</svg>
