<svg width="16" height="16" viewBox="0 0 16 16" fill="none" xmlns="http://www.w3.org/2000/svg">
<g clip-path="url(#clip0_7263_11158)">
<path fill-rule="evenodd" clip-rule="evenodd" d="M0.418887 2.43528C0.0342176 3.09963 -0.0912452 3.88274 0.0666276 4.634C0.2245 5.38527 0.65456 6.05164 1.2741 6.50496C1.89364 6.95829 2.6589 7.16654 3.42272 7.08968C4.18654 7.01282 4.89497 6.65628 5.41178 6.08861L6.19666 6.54195C6.21889 6.62372 6.32733 6.64506 6.38333 6.58017C6.51726 6.42313 6.6654 6.27972 6.82778 6.14995C7.082 5.9455 7.09444 5.51972 6.81178 5.35706L6.07844 4.93306C6.30778 4.20277 6.25992 3.41358 5.94402 2.71636C5.62812 2.01913 5.06634 1.46279 4.36608 1.15369C3.66582 0.84459 2.8762 0.804414 2.14818 1.04084C1.42016 1.27727 0.804811 1.77372 0.419776 2.43528M2.22422 5.53039C2.02041 5.41451 1.84153 5.25946 1.69788 5.07417C1.55423 4.88887 1.44865 4.677 1.38722 4.45073C1.3258 4.22447 1.30973 3.98829 1.33995 3.75579C1.37017 3.5233 1.44608 3.29907 1.56331 3.09603C1.68054 2.89299 1.83677 2.71514 2.02301 2.57273C2.20925 2.43031 2.42183 2.32614 2.64849 2.26621C2.87516 2.20629 3.11144 2.19179 3.34373 2.22355C3.57602 2.25531 3.79974 2.33271 4.002 2.45128C4.40699 2.6887 4.70163 3.07668 4.82162 3.53054C4.94161 3.98439 4.87722 4.46729 4.64249 4.87385C4.40775 5.2804 4.02174 5.57761 3.56869 5.70061C3.11564 5.82361 2.63232 5.76242 2.22422 5.53039ZM7.96289 6.49928C7.6198 6.64391 7.31428 6.86499 7.06965 7.14567C6.82502 7.42635 6.64774 7.75921 6.55133 8.11883L6.19755 9.43972L5.41178 9.89306C4.89403 9.32864 4.18632 8.97497 3.4241 8.89976C2.66188 8.82454 1.89869 9.03306 1.28061 9.48539C0.662525 9.93773 0.232962 10.6021 0.0741342 11.3514C-0.0846933 12.1007 0.038372 12.8822 0.419776 13.5464C0.803167 14.211 1.41863 14.7105 2.14791 14.9489C2.87719 15.1873 3.66885 15.1478 4.3708 14.8381C5.07274 14.5283 5.63545 13.97 5.95081 13.2705C6.26617 12.5711 6.31194 11.7798 6.07933 11.0486L15.5727 5.56772C15.6866 5.50162 15.7783 5.40325 15.8364 5.28505C15.8945 5.16684 15.9162 5.03409 15.8989 4.90354C15.8816 4.77298 15.826 4.65048 15.7392 4.55148C15.6523 4.45249 15.5381 4.38143 15.4109 4.34728L14.786 4.17928C14.2611 4.03886 13.7044 4.07733 13.2038 4.28861L7.96289 6.49928ZM1.57355 12.8797C1.45498 12.6775 1.37758 12.4537 1.34582 12.2215C1.31406 11.9892 1.32856 11.7529 1.38849 11.5262C1.44842 11.2996 1.55259 11.087 1.695 10.9007C1.83742 10.7145 2.01526 10.5583 2.2183 10.441C2.42135 10.3238 2.64557 10.2479 2.87807 10.2177C3.11056 10.1875 3.34674 10.2035 3.57301 10.265C3.79927 10.3264 4.01115 10.432 4.19644 10.5756C4.38173 10.7193 4.53678 10.8981 4.65266 11.1019C4.88469 11.51 4.94589 11.9934 4.82288 12.4464C4.69988 12.8995 4.40268 13.2855 3.99612 13.5202C3.58957 13.7549 3.10667 13.8193 2.65281 13.6993C2.19895 13.5794 1.81098 13.2847 1.57355 12.8797Z" fill="white"/>
<path d="M10.2421 9.67101C10.1704 9.71236 10.1117 9.77292 10.0726 9.84584C10.0335 9.91877 10.0155 10.0012 10.0206 10.0838C10.0258 10.1664 10.054 10.2459 10.1019 10.3134C10.1498 10.3808 10.2156 10.4336 10.2919 10.4657L13.2021 11.6932C13.7027 11.9045 14.2595 11.943 14.7844 11.8026L15.4101 11.6346C15.5372 11.6002 15.6513 11.529 15.7379 11.4299C15.8246 11.3308 15.8799 11.2082 15.8971 11.0777C15.9142 10.9472 15.8923 10.8145 15.8341 10.6964C15.7759 10.5783 15.6841 10.4801 15.5701 10.4141L12.4857 8.63279C12.4181 8.59378 12.3415 8.57324 12.2635 8.57324C12.1855 8.57324 12.1088 8.59378 12.0412 8.63279L10.2421 9.67101Z" fill="white"/>
</g>
<defs>
<clipPath id="clip0_7263_11158">
<rect width="16" height="16" fill="white"/>
</clipPath>
</defs>
</svg>
